<svg width="351" height="491" xmlns="http://www.w3.org/2000/svg" preserveAspectRatio="xMidYMid meet">

 <g>
  <title>background</title>
  <rect fill="none" id="canvas_background" height="602" width="802" y="-1" x="-1"/>
 </g>
 <g>
  <title>Layer 1</title>
  <g id="svg_1" fill="#000000" transform="translate(0,491) scale(0.10000000149011612,-0.10000000149011612) ">
   <path stroke="#000" fill="#fff" id="svg_2" d="m1760,4800c-39,-39 -28,-74 116,-363c75,-149 146,-285 157,-301l20,-29l601,7c368,4 611,11 627,17c26,10 49,45 49,75c0,35 -31,72 -77,92c-26,11 -304,115 -618,230c-881,324 -837,310 -875,272z"/>
   <path stroke="#000" fill="#fff" id="svg_3" d="m1477,4801c-34,-13 -1127,-1053 -1134,-1078c-10,-41 14,-101 47,-118c16,-8 38,-15 49,-15c11,0 332,103 713,230c753,250 738,243 738,317c0,26 -41,119 -149,338c-137,278 -151,303 -184,318c-38,18 -52,20 -80,8z"/>
   <path stroke="#000" fill="#fff" id="svg_4" d="m1450,3779c-118,-39 -433,-142 -700,-229c-442,-145 -488,-162 -516,-192c-41,-45 -54,-79 -54,-143c0,-51 4,-61 74,-162c41,-59 222,-326 403,-592c180,-267 347,-504 370,-527c64,-66 148,-69 215,-6c34,31 31,24 234,620l164,483l-45,59c-25,33 -76,108 -114,167c-113,178 -134,232 -39,99c152,-211 201,-276 207,-276c4,0 40,96 80,213c40,116 84,241 97,277c13,36 23,83 24,104c0,87 -75,176 -150,176c-19,-1 -132,-32 -250,-71z"/>
   <path stroke="#000" fill="#fff" id="svg_5" d="m2065,3646c-58,-26 -72,-55 -179,-366c-58,-168 -182,-528 -276,-800c-94,-272 -173,-513 -176,-536c-13,-88 56,-174 138,-174c21,0 241,36 490,81c249,44 530,94 623,110c309,53 444,79 472,90c76,28 114,108 92,188c-15,54 -116,190 -856,1151c-208,270 -240,295 -328,256z"/>
   <path stroke="#000" fill="#fff" id="svg_6" d="m3125,1904c-10,-4 -285,-52 -845,-149c-394,-68 -682,-121 -732,-135c-45,-13 -103,-75 -117,-126c-13,-46 0,-103 32,-149c28,-39 229,-276 585,-692c184,-215 296,-337 317,-347c57,-28 144,-15 182,26c20,22 229,381 590,1018c96,168 178,323 184,344c19,72 -12,147 -80,193c-31,21 -87,29 -116,17z"/>
   <path stroke="#000" fill="#fff" id="svg_7" d="m925,1163c-171,-120 -338,-238 -372,-262c-120,-85 -108,-130 52,-193c302,-118 1571,-590 1601,-595c45,-7 74,17 74,63c0,29 -40,80 -312,400c-633,744 -681,799 -708,802c-19,2 -100,-50 -335,-215z"/>
  </g>
 </g>
</svg>